# xmcd CD database file
#
# Track frame offsets:
#	150
#	23078
#	40827
#	52967
#	77307
#	99347
#	113205
#	135125
#	141878
#	165250
#	168363
#	183972
#	189900
#	217191
#	248177
#
# Disc length: 3635 seconds
#
# Revision: 0
# Processed by: cddbd v1.5.1PL0 Copyright (c) Steve Scherf et al.
# Submitted via: CDex 1.51
#
DISCID=b30e310f
DTITLE=Como - Scenario
DYEAR=2004
DGENRE=Jazz
TTITLE0=Giorni d'amore
TTITLE1=BBzo
TTITLE2=Riccordo
TTITLE3=Nino
TTITLE4=Respiro
TTITLE5=Signore e signori
TTITLE6=Parfum de femme
TTITLE7=Innocenza
TTITLE8=Cari amici
TTITLE9=Intervista
TTITLE10=Il ballo
TTITLE11=Paradiso
TTITLE12=Un mondo nuovo
TTITLE13=Il sorpasso
TTITLE14=Bonus Track "Tanaper Lorenzo" (video)
EXTD=YEAR: 2004
EXTT0=
EXTT1=
EXTT2=
EXTT3=
EXTT4=
EXTT5=
EXTT6=
EXTT7=
EXTT8=
EXTT9=
EXTT10=
EXTT11=
EXTT12=
EXTT13=
EXTT14=
PLAYORDER=
